<svg width="29" height="24" viewBox="0 0 29 24" fill="none" xmlns="http://www.w3.org/2000/svg">
<path fill-rule="evenodd" clip-rule="evenodd" d="M27.5747 13.5359C28.127 13.5359 28.5747 13.0882 28.5747 12.5359C28.5747 11.9836 28.127 11.5359 27.5747 11.5359L3.75412 11.5359L11.2936 2.65927C11.6511 2.23833 11.6239 1.58097 11.2328 1.19101C10.8417 0.801057 10.2349 0.826174 9.87733 1.24711L1.32721 11.3136C1.22933 11.4289 1.16028 11.5618 1.11964 11.7022C1.0898 11.7257 1.06088 11.7513 1.03305 11.7791C0.641834 12.1689 0.614527 12.8262 0.972057 13.2471L9.52217 23.3136C9.87971 23.7346 10.4867 23.7598 10.8779 23.3699C11.2691 22.9801 11.2964 22.3228 10.9389 21.9019L3.8331 13.5359L27.5747 13.5359Z" fill="#111111"/>
</svg>
