<svg width="23" height="23" viewBox="0 0 23 23" fill="none" xmlns="http://www.w3.org/2000/svg">
<path fill-rule="evenodd" clip-rule="evenodd" d="M0.415032 20.9794C0.0245076 21.37 -0.00283459 22.0283 0.353961 22.4499C0.710757 22.8714 1.31658 22.8966 1.7071 22.5061L11.1066 13.1066L20.5061 22.5061C20.8966 22.8966 21.5549 22.9239 21.9765 22.5671C22.3981 22.2103 22.4232 21.6045 22.0327 21.214L12.5159 11.6972L21.5061 2.70707C21.8966 2.31655 21.924 1.65822 21.5672 1.23666C21.2104 0.815093 20.6045 0.789932 20.214 1.18046L11.1066 10.2879L2.23372 1.41501C1.84319 1.02448 1.18487 0.997139 0.763305 1.35394C0.341742 1.71073 0.31658 2.31655 0.707105 2.70708L9.69725 11.6972L0.415032 20.9794Z" fill="black"/>
</svg>
