<svg width="42" height="36" viewBox="0 0 42 36" fill="none" xmlns="http://www.w3.org/2000/svg">
<path fill-rule="evenodd" clip-rule="evenodd" d="M22 0C27.5228 0 32 4.47715 32 10C37.5228 10 42 14.4772 42 20C42 24.8379 38.5645 28.8734 34 29.8V27.7484C37.4498 26.8609 40 23.7272 40 20C40 15.5817 36.4183 12 32 12H30V10C30 5.58172 26.4183 2 22 2C17.5817 2 14 5.58172 14 10C14 10.0539 14.0005 10.1076 14.0016 10.1611L14.0507 12.6576L11.6037 12.1604C11.0872 12.0554 10.5511 12 10 12C5.58172 12 2 15.5817 2 20C2 24.0792 5.05462 27.4474 9 27.9383V29.9506C3.94668 29.4489 0 25.1853 0 20C0 14.4772 4.47715 10 10 10C10.6856 10 11.3551 10.069 12.002 10.2004C12.0007 10.1338 12 10.067 12 10C12 9.38362 12.0558 8.78026 12.1625 8.19469C13.0124 3.53356 17.0935 0 22 0Z" fill="black"/>
<path fill-rule="evenodd" clip-rule="evenodd" d="M22.6095 16C22.6095 15.4477 22.1618 15 21.6095 15C21.0572 15 20.6095 15.4477 20.6095 16V31.9805L15.6803 27.4609C15.2733 27.0877 14.6395 27.114 14.2648 27.5197C13.89 27.9254 13.9162 28.5568 14.3233 28.9301L20.5661 34.6542C20.6677 34.7473 20.7833 34.8155 20.9056 34.8592C21.2812 35.2566 21.9086 35.2799 22.3127 34.9094L28.5555 29.1853C28.9625 28.8121 28.9888 28.1805 28.6142 27.7747C28.2396 27.3689 27.606 27.3424 27.1989 27.7157L22.6095 31.9237V16Z" fill="#111111"/>
</svg>
