<svg width="42" height="36" viewBox="0 0 42 36" fill="none" xmlns="http://www.w3.org/2000/svg">
<path fill-rule="evenodd" clip-rule="evenodd" d="M22 0C27.5228 0 32 4.47715 32 10C37.5228 10 42 14.4772 42 20C42 24.8379 38.5645 28.8734 34 29.8V27.7484C37.4498 26.8609 40 23.7272 40 20C40 15.5817 36.4183 12 32 12H30V10C30 5.58172 26.4183 2 22 2C17.5817 2 14 5.58172 14 10C14 10.0539 14.0005 10.1076 14.0016 10.1611L14.0507 12.6576L11.6037 12.1604C11.0872 12.0554 10.5511 12 10 12C5.58172 12 2 15.5817 2 20C2 24.0792 5.05462 27.4474 9 27.9383V29.9506C3.94668 29.4489 0 25.1853 0 20C0 14.4772 4.47715 10 10 10C10.6856 10 11.3551 10.069 12.002 10.2004C12.0007 10.1338 12 10.067 12 10C12 9.38362 12.0558 8.78026 12.1625 8.19469C13.0124 3.53356 17.0935 0 22 0Z" fill="black"/>
<path fill-rule="evenodd" clip-rule="evenodd" d="M20.2693 34.173C20.2693 34.7253 20.717 35.173 21.2693 35.173C21.8216 35.173 22.2693 34.7253 22.2693 34.173V18.1925L27.1985 22.7121C27.6056 23.0853 28.2394 23.059 28.6141 22.6533C28.9888 22.2476 28.9626 21.6161 28.5555 21.2429L22.3127 15.5188C22.2112 15.4257 22.0955 15.3574 21.9733 15.3138C21.5977 14.9164 20.9703 14.8931 20.5662 15.2636L14.3234 20.9877C13.9163 21.3609 13.89 21.9925 14.2646 22.3983C14.6392 22.8041 15.2729 22.8305 15.6799 22.4573L20.2693 18.2492V34.173Z" fill="#111111"/>
</svg>
