<svg width="30" height="20" viewBox="0 0 30 20" fill="none" xmlns="http://www.w3.org/2000/svg">
<path d="M19.2939 19.368C19.6461 19.7178 20.2145 19.7178 20.5667 19.368L28.571 11.4191C29.3586 10.637 29.3586 9.36304 28.571 8.58088L20.5667 0.631975C20.2145 0.282236 19.6461 0.282236 19.2939 0.631975C18.9383 0.985165 18.9383 1.56042 19.2939 1.91361L27.4367 10L19.2939 18.0864C18.9383 18.4396 18.9383 19.0148 19.2939 19.368Z" fill="white"/>
<path d="M10.7061 0.631976C10.3539 0.282238 9.78548 0.282238 9.43331 0.631976L1.42901 8.58088C0.641398 9.36304 0.641398 10.637 1.42901 11.4191L9.43331 19.368C9.78548 19.7178 10.3539 19.7178 10.7061 19.368C11.0617 19.0148 11.0617 18.4396 10.7061 18.0864L2.56332 10L10.7061 1.91361C11.0617 1.56042 11.0617 0.985167 10.7061 0.631976Z" fill="white"/>
</svg>
