<svg width="20" height="14" viewBox="0 0 32 26" fill="none" xmlns="http://www.w3.org/2000/svg" class='download-svg' >
<path fill-rule="evenodd" clip-rule="evenodd" d="M17.6095 1C17.6095 0.447715 17.1618 0 16.6095 0C16.0572 0 15.6095 0.447715 15.6095 1V16.9805L10.6803 12.4609C10.2733 12.0877 9.63948 12.114 9.26476 12.5197C8.89003 12.9254 8.91625 13.5568 9.32332 13.9301L15.5661 19.6542C15.6677 19.7473 15.7833 19.8155 15.9056 19.8592C16.2812 20.2566 16.9086 20.2799 17.3127 19.9094L23.5555 14.1853C23.9625 13.8121 23.9888 13.1805 23.6142 12.7747C23.2396 12.3689 22.606 12.3424 22.1989 12.7157L17.6095 16.9237V1Z" fill="#FD4D4D"/>
<path d="M1 10V23C1 24.1046 1.89543 25 3 25H29C30.1046 25 31 24.1046 31 23V10" stroke="#FD4D4D" stroke-width="2" stroke-linecap="round"/>
</svg>
