<svg width="30" height="30" viewBox="0 0 30 30" fill="none" xmlns="http://www.w3.org/2000/svg">
<mask id="path-1-inside-1" fill="white">
<path fill-rule="evenodd" clip-rule="evenodd" d="M1.37956 14.0854C0.506453 12.6608 0 10.9656 0 9.14634C0 4.09496 3.90449 0 8.72093 0C11.1869 0 13.4138 1.0734 15 2.79901C16.5862 1.0734 18.8131 0 21.2791 0C26.0955 0 30 4.09496 30 9.14634C30 10.9656 29.4935 12.6608 28.6204 14.0854H28.8967L15 30L1.10331 14.0854H1.37956Z"/>
</mask>
<path d="M1.37956 14.0854V16.0854H4.95114L3.08476 13.0402L1.37956 14.0854ZM15 2.79901L13.5276 4.15251L15 5.7543L16.4724 4.15251L15 2.79901ZM28.6204 14.0854L26.9152 13.0402L25.0489 16.0854H28.6204V14.0854ZM28.8967 14.0854L30.4032 15.4008L33.2983 12.0854H28.8967V14.0854ZM15 30L13.4935 31.3155L15 33.0407L16.5065 31.3155L15 30ZM1.10331 14.0854V12.0854H-3.29826L-0.403182 15.4008L1.10331 14.0854ZM3.08476 13.0402C2.40145 11.9254 2 10.5911 2 9.14634H-2C-2 11.3402 -1.38854 13.3963 -0.325639 15.1305L3.08476 13.0402ZM2 9.14634C2 5.10869 5.09776 2 8.72093 2V-2C2.71123 -2 -2 3.08122 -2 9.14634H2ZM8.72093 2C10.5885 2 12.2931 2.80955 13.5276 4.15251L16.4724 1.4455C14.5344 -0.662745 11.7852 -2 8.72093 -2V2ZM16.4724 4.15251C17.7069 2.80955 19.4115 2 21.2791 2V-2C18.2148 -2 15.4656 -0.662745 13.5276 1.4455L16.4724 4.15251ZM21.2791 2C24.9022 2 28 5.10869 28 9.14634H32C32 3.08122 27.2888 -2 21.2791 -2V2ZM28 9.14634C28 10.5911 27.5986 11.9254 26.9152 13.0402L30.3256 15.1305C31.3885 13.3963 32 11.3402 32 9.14634H28ZM28.6204 16.0854H28.8967V12.0854H28.6204V16.0854ZM27.3902 12.7699L13.4935 28.6845L16.5065 31.3155L30.4032 15.4008L27.3902 12.7699ZM16.5065 28.6845L2.60981 12.7699L-0.403182 15.4008L13.4935 31.3155L16.5065 28.6845ZM1.10331 16.0854H1.37956V12.0854H1.10331V16.0854Z" fill="black" mask="url(#path-1-inside-1)"/>
</svg>
