<svg width="30" height="30" viewBox="0 0 30 30" fill="none" xmlns="http://www.w3.org/2000/svg">
<path fill-rule="evenodd" clip-rule="evenodd" d="M19.4904 15.5271C21.8016 14.0292 23.3333 11.409 23.3333 8.42697C23.3333 3.77288 19.6024 0 15 0C10.3976 0 6.66666 3.77288 6.66666 8.42697C6.66666 11.409 8.19835 14.0292 10.5095 15.5271C8.22276 16.2527 6.11942 17.5288 4.39341 19.2742C2.52254 21.1661 1.19691 23.5063 0.518794 26.0451C-0.051285 28.1794 1.79087 30 4.00001 30L15 30H26C28.2091 30 30.0513 28.1794 29.4812 26.0451C28.8031 23.5063 27.4775 21.1661 25.6066 19.2742C23.8806 17.5288 21.7772 16.2527 19.4904 15.5271Z" fill="#EFE7DD"/>
</svg>
