<svg width="45" height="30" viewBox="0 0 45 30" fill="none" xmlns="http://www.w3.org/2000/svg">
<path fill-rule="evenodd" clip-rule="evenodd" d="M14.5859 14.8315C14.4369 14.8315 14.2881 14.8337 14.1396 14.8382C10.868 14.6062 8.25257 11.8436 8.25257 8.42697C8.25257 4.85632 11.1091 2 14.5859 2C15.3516 2 16.0873 2.13854 16.7689 2.39275C17.3087 1.86055 17.9196 1.4018 18.5859 1.03245C17.3986 0.374267 16.0355 0 14.5859 0C9.98353 0 6.25257 3.77288 6.25257 8.42697C6.25257 11.409 7.78426 14.0292 10.0955 15.5271C7.80867 16.2527 5.70533 17.5288 3.97931 19.2742C2.10845 21.1661 0.78282 23.5063 0.104701 26.0451C-0.465378 28.1794 1.37677 30 3.58591 30H11.5859C10.1052 30 8.78935 29.1821 8.25426 28H3.58591C3.0197 28 2.54689 27.7638 2.2737 27.4674C2.02679 27.1995 1.94541 26.9039 2.03696 26.5612C2.62659 24.3537 3.77852 22.3216 5.4014 20.6805C7.72805 18.3277 10.8409 16.9619 14.1084 16.8403C14.2664 16.8494 14.4256 16.8539 14.5859 16.8539C14.7462 16.8539 14.9054 16.8494 15.0634 16.8403C15.0829 16.8411 15.1024 16.8418 15.1219 16.8426C16.0636 16.2964 17.0607 15.8554 18.0955 15.5271C17.6178 15.2175 17.1734 14.86 16.7689 14.4612C16.2208 14.6656 15.6377 14.7952 15.0322 14.8382C14.8837 14.8337 14.7349 14.8315 14.5859 14.8315Z" fill="white"/>
<path fill-rule="evenodd" clip-rule="evenodd" d="M27.4029 14.4612C26.9984 14.8599 26.5541 15.2175 26.0764 15.5271C27.1111 15.8554 28.1083 16.2964 29.0499 16.8426C29.0694 16.8418 29.0889 16.8411 29.1084 16.8403C29.2665 16.8494 29.4257 16.8539 29.5859 16.8539C29.7462 16.8539 29.9054 16.8494 30.0634 16.8403C33.3309 16.9619 36.4438 18.3277 38.7704 20.6805C40.3933 22.3216 41.5452 24.3537 42.1349 26.5612C42.2264 26.9039 42.145 27.1995 41.8981 27.4674C41.6249 27.7638 41.1521 28 40.5859 28H35.9176C35.3825 29.1821 34.0666 30 32.5859 30H40.5859C42.7951 30 44.6372 28.1794 44.0671 26.0451C43.389 23.5063 42.0634 21.1661 40.1925 19.2742C38.4665 17.5288 36.3632 16.2527 34.0764 15.5271C36.3876 14.0292 37.9192 11.409 37.9192 8.42697C37.9192 3.77288 34.1883 0 29.5859 0C28.1363 0 26.7732 0.374266 25.5859 1.03245C26.2522 1.4018 26.8631 1.86055 27.4029 2.39275C28.0846 2.13854 28.8202 2 29.5859 2C33.0627 2 35.9192 4.85632 35.9192 8.42697C35.9192 11.8436 33.3038 14.6062 30.0322 14.8382C29.8837 14.8337 29.7349 14.8315 29.5859 14.8315C29.4369 14.8315 29.2881 14.8337 29.1396 14.8382C28.5341 14.7952 27.951 14.6656 27.4029 14.4612Z" fill="white"/>
<path fill-rule="evenodd" clip-rule="evenodd" d="M22.1396 14.8382C22.2881 14.8337 22.4369 14.8315 22.5859 14.8315C22.7349 14.8315 22.8837 14.8337 23.0322 14.8382C26.3038 14.6062 28.9192 11.8436 28.9192 8.42697C28.9192 4.85632 26.0627 2 22.5859 2C19.1091 2 16.2526 4.85632 16.2526 8.42697C16.2526 11.8436 18.868 14.6062 22.1396 14.8382ZM18.0955 15.5271C15.7843 14.0292 14.2526 11.409 14.2526 8.42697C14.2526 3.77288 17.9835 0 22.5859 0C27.1883 0 30.9192 3.77288 30.9192 8.42697C30.9192 11.409 29.3875 14.0292 27.0764 15.5271C29.3631 16.2527 31.4665 17.5288 33.1925 19.2742C35.0634 21.1661 36.389 23.5063 37.0671 26.0451C37.6372 28.1794 35.7951 30 33.5859 30H22.5859H11.5859C9.37677 30 7.53462 28.1794 8.1047 26.0451C8.78282 23.5063 10.1084 21.1661 11.9793 19.2742C13.7053 17.5288 15.8087 16.2527 18.0955 15.5271ZM22.1084 16.8403C18.8409 16.9619 15.7281 18.3277 13.4014 20.6805C11.7785 22.3216 10.6266 24.3537 10.037 26.5612C9.94541 26.9039 10.0268 27.1995 10.2737 27.4674C10.5469 27.7638 11.0197 28 11.5859 28H22.5859H33.5859C34.1521 28 34.6249 27.7638 34.8981 27.4674C35.145 27.1995 35.2264 26.9039 35.1349 26.5612C34.5452 24.3537 33.3933 22.3216 31.7704 20.6805C29.4438 18.3277 26.3309 16.9619 23.0634 16.8403C22.9054 16.8494 22.7462 16.8539 22.5859 16.8539C22.4256 16.8539 22.2664 16.8494 22.1084 16.8403Z" fill="white"/>
</svg>
