<svg width="20" height="18" viewBox="0 0 20 18" fill="none" xmlns="http://www.w3.org/2000/svg">
<path d="M6.2918 17.125C13.8371 17.125 17.9652 10.8723 17.9652 5.45158C17.9652 5.2758 17.9613 5.09611 17.9535 4.92033C18.7566 4.33958 19.4496 3.62024 20 2.79611C19.2521 3.12886 18.458 3.34618 17.6449 3.44064C18.5011 2.92745 19.1421 2.12126 19.4492 1.1715C18.6438 1.64883 17.763 1.98554 16.8445 2.16721C16.2257 1.50966 15.4075 1.07429 14.5164 0.928406C13.6253 0.782519 12.711 0.934239 11.9148 1.36011C11.1186 1.78598 10.4848 2.46229 10.1115 3.28446C9.73825 4.10663 9.64619 5.02888 9.84961 5.90861C8.21874 5.82677 6.62328 5.40312 5.16665 4.66511C3.71002 3.92711 2.42474 2.89123 1.39414 1.62463C0.870333 2.52773 0.710047 3.5964 0.945859 4.61344C1.18167 5.63048 1.79589 6.51957 2.66367 7.10002C2.01219 7.07933 1.37498 6.90393 0.804688 6.5883V6.63908C0.804104 7.58682 1.13175 8.50552 1.73192 9.23901C2.3321 9.97249 3.16777 10.4755 4.09687 10.6625C3.49338 10.8276 2.85999 10.8517 2.2457 10.7328C2.50788 11.5479 3.01798 12.2608 3.70481 12.772C4.39164 13.2832 5.22093 13.5672 6.07695 13.5844C4.62369 14.726 2.82848 15.3451 0.980469 15.3422C0.652739 15.3417 0.325333 15.3216 0 15.2821C1.87738 16.4865 4.06128 17.1262 6.2918 17.125Z" fill="#FD4D4D"/>
</svg>
