<svg width="68" height="68" viewBox="0 0 68 68" fill="none" xmlns="http://www.w3.org/2000/svg">
<path d="M59 9H9V59H59V9Z" fill="white"/>
<path d="M39.0459 44.2521V46.8551C39.0459 48.3996 39.5039 49.9095 40.362 51.1937C41.2201 52.4779 42.4397 53.4788 43.8667 54.0699C45.2936 54.6609 46.8638 54.8156 48.3786 54.5143C49.8935 54.213 51.2849 53.4692 52.3771 52.3771C53.4692 51.2849 54.213 49.8935 54.5143 48.3786C54.8156 46.8638 54.6609 45.2936 54.0699 43.8667C53.4788 42.4397 52.4779 41.2201 51.1937 40.362C49.9095 39.5039 48.3996 39.0459 46.8551 39.0459H44.2521V36.4429C44.2521 35.7525 43.9778 35.0904 43.4897 34.6022C43.0015 34.1141 42.3394 33.8398 41.649 33.8398C40.9586 33.8398 40.2965 34.1141 39.8084 34.6022C39.3202 35.0904 39.0459 35.7525 39.0459 36.4429V39.0459H28.6337V28.6337H46.8551C48.3996 28.6337 49.9095 28.1757 51.1937 27.3176C52.4779 26.4595 53.4788 25.2399 54.0699 23.813C54.6609 22.386 54.8156 20.8158 54.5143 19.301C54.213 17.7862 53.4692 16.3947 52.3771 15.3026C51.2849 14.2104 49.8935 13.4667 48.3786 13.1654C46.8638 12.864 45.2936 13.0187 43.8667 13.6098C42.4397 14.2008 41.2201 15.2017 40.362 16.486C39.5039 17.7702 39.0459 19.28 39.0459 20.8245V23.4276H28.6337V20.8245C28.6337 19.28 28.1757 17.7702 27.3176 16.486C26.4595 15.2017 25.2399 14.2008 23.813 13.6098C22.386 13.0187 20.8158 12.864 19.301 13.1654C17.7862 13.4667 16.3947 14.2104 15.3026 15.3026C14.2104 16.3947 13.4667 17.7862 13.1654 19.301C12.864 20.8158 13.0187 22.386 13.6098 23.813C14.2008 25.2399 15.2017 26.4595 16.486 27.3176C17.7702 28.1757 19.28 28.6337 20.8245 28.6337H23.4276V39.0459H20.8245C19.28 39.0459 17.7702 39.5039 16.486 40.362C15.2017 41.2201 14.2008 42.4397 13.6098 43.8667C13.0187 45.2936 12.864 46.8638 13.1654 48.3786C13.4667 49.8935 14.2104 51.2849 15.3026 52.3771C16.3947 53.4692 17.7862 54.213 19.301 54.5143C20.8158 54.8156 22.386 54.6609 23.813 54.0699C25.2399 53.4788 26.4595 52.4779 27.3176 51.1937C28.1757 49.9095 28.6337 48.3996 28.6337 46.8551V44.2521H39.0459ZM13.0153 0H54.6643C58.1162 0 61.4267 1.37125 63.8675 3.8121C66.3084 6.25294 67.6796 9.56344 67.6796 13.0153V54.6643C67.6796 58.1162 66.3084 61.4267 63.8675 63.8675C61.4267 66.3084 58.1162 67.6796 54.6643 67.6796H13.0153C9.56344 67.6796 6.25294 66.3084 3.8121 63.8675C1.37125 61.4267 0 58.1162 0 54.6643L0 13.0153C0 9.56344 1.37125 6.25294 3.8121 3.8121C6.25294 1.37125 9.56344 0 13.0153 0V0ZM23.4276 23.4276H20.8245C20.3097 23.4276 19.8064 23.2749 19.3783 22.9889C18.9502 22.7028 18.6166 22.2963 18.4196 21.8207C18.2226 21.345 18.171 20.8216 18.2715 20.3167C18.3719 19.8117 18.6198 19.3479 18.9839 18.9839C19.3479 18.6198 19.8117 18.3719 20.3167 18.2715C20.8216 18.171 21.345 18.2226 21.8207 18.4196C22.2963 18.6166 22.7028 18.9502 22.9889 19.3783C23.2749 19.8064 23.4276 20.3097 23.4276 20.8245V23.4276ZM23.4276 44.2521V46.8551C23.4276 47.37 23.2749 47.8732 22.9889 48.3013C22.7028 48.7294 22.2963 49.063 21.8207 49.2601C21.345 49.4571 20.8216 49.5086 20.3167 49.4082C19.8117 49.3077 19.3479 49.0598 18.9839 48.6958C18.6198 48.3317 18.3719 47.8679 18.2715 47.363C18.171 46.858 18.2226 46.3346 18.4196 45.859C18.6166 45.3833 18.9502 44.9768 19.3783 44.6908C19.8064 44.4047 20.3097 44.2521 20.8245 44.2521H23.4276ZM44.2521 23.4276V20.8245C44.2521 20.3097 44.4047 19.8064 44.6908 19.3783C44.9768 18.9502 45.3833 18.6166 45.859 18.4196C46.3346 18.2226 46.858 18.171 47.363 18.2715C47.8679 18.3719 48.3317 18.6198 48.6958 18.9839C49.0598 19.3479 49.3077 19.8117 49.4082 20.3167C49.5086 20.8216 49.4571 21.345 49.2601 21.8207C49.063 22.2963 48.7294 22.7028 48.3013 22.9889C47.8732 23.2749 47.37 23.4276 46.8551 23.4276H44.2521ZM44.2521 44.2521H46.8551C47.37 44.2521 47.8732 44.4047 48.3013 44.6908C48.7294 44.9768 49.063 45.3833 49.2601 45.859C49.4571 46.3346 49.5086 46.858 49.4082 47.363C49.3077 47.8679 49.0598 48.3317 48.6958 48.6958C48.3317 49.0598 47.8679 49.3077 47.363 49.4082C46.858 49.5086 46.3346 49.4571 45.859 49.2601C45.3833 49.063 44.9768 48.7294 44.6908 48.3013C44.4047 47.8732 44.2521 47.37 44.2521 46.8551V44.2521Z" fill="black"/>
</svg>
